<svg xmlns="http://www.w3.org/2000/svg" width="500" height="500" viewBox="0 0 500 500">
<g>
<path d="M 216.96 183.94 C198.39,185.27 193.00,185.27 193.00,183.92 C193.00,181.70 198.45,169.10 204.69,156.87 L 211.14 144.25 L 219.32 143.61 C240.28,141.99 259.27,141.78 274.13,143.01 L 289.75 144.31 L 293.24 150.40 C300.37,162.88 308.52,182.35 307.38,184.20 C306.75,185.22 290.39,184.81 275.46,183.39 C269.44,182.81 269.43,182.81 268.16,178.75 C267.47,176.52 265.59,173.12 264.00,171.19 C261.79,168.50 261.25,167.02 261.68,164.84 C262.18,162.35 261.95,162.00 259.85,162.00 C258.53,162.00 256.50,162.66 255.35,163.46 C252.91,165.17 252.00,164.59 252.00,161.30 C252.00,158.81 253.97,155.12 257.43,151.11 L 259.50 148.72 L 253.64 149.30 C243.58,150.29 237.63,155.74 236.72,164.78 C236.49,167.06 235.72,169.63 235.00,170.50 C234.28,171.37 233.33,174.37 232.88,177.17 C232.44,179.96 231.93,182.40 231.75,182.58 C231.57,182.76 224.92,183.37 216.96,183.94 ZM 166.50 189.17 C161.00,190.29 152.74,192.71 148.15,194.56 L 139.80 197.93 L 140.30 194.21 C141.06,188.56 142.43,184.07 145.35,177.72 C146.81,174.54 148.00,171.65 148.00,171.30 C148.00,170.95 150.04,167.40 152.52,163.41 L 157.05 156.15 L 166.27 153.16 C180.70,148.49 203.54,143.31 202.78,144.88 C202.62,145.22 199.55,151.35 195.96,158.50 C192.37,165.66 188.42,174.73 187.17,178.67 L 184.91 185.84 L 180.71 186.49 C178.39,186.84 172.00,188.05 166.50,189.17 ZM 361.00 194.87 L 361.00 194.92 C361.00,195.74 361.00,196.30 360.72,196.57 C360.12,197.15 358.23,196.38 352.30,193.98 L 352.12 193.91 C348.07,192.27 338.62,189.74 331.12,188.28 C323.63,186.83 317.03,185.29 316.45,184.87 C315.88,184.44 314.57,181.29 313.54,177.87 C312.52,174.45 308.62,165.56 304.88,158.12 C301.14,150.68 298.24,144.42 298.44,144.22 C298.64,144.02 300.54,144.30 302.65,144.84 C304.77,145.38 309.42,146.34 313.00,146.97 C316.58,147.60 320.85,148.53 322.50,149.03 C337.23,153.51 342.76,155.49 344.31,156.84 C348.91,160.86 361.00,188.40 361.00,194.87 ZM 230.04 288.50 L 229.50 328.50 L 209.94 328.77 C199.18,328.92 190.07,328.73 189.69,328.35 C189.31,327.98 189.00,318.82 189.00,308.02 L 189.00 288.37 L 209.52 288.43 ZM 229.77 226.75 L 229.50 246.50 L 189.00 247.04 L 189.00 207.00 L 230.04 207.00 ZM 311.77 226.75 L 311.50 246.50 L 271.00 247.04 L 271.00 207.00 L 312.04 207.00 ZM 246.81 296.81 C246.59,298.72 245.85,299.59 244.25,299.82 C242.34,300.09 242.00,299.68 242.00,297.07 C242.00,294.33 241.68,294.00 239.00,294.00 C236.03,294.00 236.00,293.94 236.00,288.57 C236.00,283.38 236.13,283.12 238.75,282.82 C241.07,282.55 241.50,282.03 241.50,279.50 C241.50,276.53 241.44,276.50 236.00,276.50 C230.74,276.50 230.49,276.62 230.18,279.25 C229.92,281.55 229.39,282.00 226.93,282.00 C224.47,282.00 224.00,281.60 224.00,279.50 C224.00,277.39 224.47,277.00 227.00,277.00 C229.67,277.00 230.00,276.67 230.00,274.00 L 230.00 271.00 L 224.00 271.00 C218.27,271.00 218.00,271.11 218.00,273.50 C218.00,275.79 217.63,276.00 213.58,276.00 C207.62,276.00 206.00,276.77 206.00,279.61 C206.00,281.49 205.47,282.00 203.50,282.00 C201.39,282.00 201.00,281.53 201.00,279.00 C201.00,276.33 200.67,276.00 198.00,276.00 C195.49,276.00 195.00,275.60 195.00,273.57 C195.00,271.65 195.59,271.06 197.75,270.82 C199.90,270.57 200.57,269.91 200.81,267.80 C201.11,265.17 200.97,265.10 195.31,264.80 L 189.50 264.50 L 188.90 254.00 L 191.95 254.00 C194.54,254.00 195.00,254.38 195.00,256.50 C195.00,258.61 195.47,259.00 198.00,259.00 C200.68,259.00 201.00,259.33 201.00,262.07 C201.00,264.82 201.28,265.10 203.75,264.82 C205.91,264.57 206.57,263.91 206.82,261.75 C207.12,259.13 207.38,259.00 212.57,259.00 C217.96,259.00 218.00,259.02 218.00,262.05 L 218.00 265.10 L 223.75 264.80 C229.15,264.52 229.52,264.34 229.81,261.82 C230.07,259.54 229.70,259.10 227.31,258.82 C225.30,258.59 224.41,257.87 224.19,256.30 C223.90,254.28 224.35,254.08 229.69,253.80 L 235.50 253.50 L 235.80 247.75 C236.09,242.12 236.16,242.00 239.05,242.00 C241.99,242.00 242.00,241.98 242.00,236.00 L 242.00 230.00 L 236.00 230.00 L 236.00 221.50 C236.00,213.12 236.03,213.00 238.48,213.00 C240.95,213.00 242.03,215.02 241.77,219.16 C241.68,220.64 242.31,223.09 246.17,236.14 C247.38,240.23 246.75,242.00 244.07,242.00 C242.65,242.00 242.14,243.03 241.72,246.75 C241.14,251.89 242.14,254.00 245.16,254.00 C246.92,254.00 247.06,254.68 246.79,262.25 C246.52,269.94 246.35,270.52 244.25,270.82 C242.50,271.07 242.00,271.79 242.00,274.07 C242.00,276.95 242.08,277.00 247.50,277.00 C252.70,277.00 253.00,277.14 253.00,279.50 C253.00,281.61 252.53,282.00 250.00,282.00 C247.33,282.00 247.00,282.33 247.00,285.00 C247.00,287.68 247.33,288.00 250.07,288.00 C252.82,288.00 253.10,288.28 252.82,290.75 C252.57,292.89 251.91,293.57 249.81,293.81 C247.73,294.05 247.05,294.73 246.81,296.81 ZM 244.20 136.40 C233.91,136.76 223.08,137.32 220.13,137.63 L 214.76 138.21 L 216.63 134.93 C220.18,128.70 233.22,116.51 241.50,111.69 C245.90,109.13 250.11,107.03 250.85,107.02 C251.60,107.01 255.30,108.62 259.08,110.61 C263.98,113.19 268.18,116.58 273.72,122.45 C287.46,137.00 287.32,138.81 272.56,136.96 C266.07,136.14 256.75,135.96 244.20,136.40 ZM 336.32 145.65 C338.89,148.70 337.34,149.04 331.00,146.83 C324.85,144.68 302.12,140.00 297.86,140.00 C295.68,140.00 294.42,139.00 291.90,135.25 C288.42,130.08 279.77,119.61 276.53,116.64 C275.41,115.62 272.93,113.48 271.02,111.89 C267.64,109.08 267.62,109.00 270.02,109.00 C274.27,109.00 290.41,113.84 298.64,117.59 C311.84,123.59 327.62,135.34 336.32,145.65 ZM 167.68 147.93 C160.93,150.50 161.45,148.97 170.25,140.34 C179.96,130.81 187.99,125.14 200.27,119.12 C209.76,114.47 227.39,108.94 232.36,109.05 C234.23,109.09 234.06,109.43 231.02,111.80 C223.60,117.55 218.51,122.81 212.34,131.07 L 205.93 139.65 L 197.72 140.92 C188.98,142.27 172.37,146.14 167.68,147.93 ZM 195.44 240.70 C195.81,241.68 199.38,242.00 209.97,242.00 L 224.00 242.00 L 224.00 213.16 L 221.25 212.74 C219.74,212.50 213.32,212.36 207.00,212.41 L 195.50 212.50 L 195.22 225.95 C195.07,233.35 195.16,239.98 195.44,240.70 ZM 195.00 294.00 L 195.00 323.00 L 224.00 323.00 L 224.00 294.00 ZM 277.00 213.00 L 277.00 242.05 L 291.25 241.78 L 305.50 241.50 L 305.78 227.25 L 306.05 213.00 ZM 141.00 233.75 C140.30,237.19 139.40,240.00 139.01,240.00 C137.34,240.00 136.26,213.97 137.64,207.07 C138.15,204.51 139.26,203.40 143.39,201.30 C153.27,196.30 172.82,190.93 180.86,191.03 C183.40,191.06 183.42,191.12 181.56,192.53 C180.49,193.34 178.95,194.00 178.13,194.00 C177.31,194.00 172.99,195.77 168.52,197.93 C154.05,204.94 144.30,217.63 141.00,233.75 ZM 363.38 221.41 C363.31,230.26 362.85,238.79 362.34,240.36 C361.53,242.92 361.29,242.39 360.12,235.36 C357.24,218.12 347.07,204.11 332.63,197.49 C328.71,195.69 324.04,193.91 322.26,193.53 C317.75,192.58 317.18,191.00 321.33,191.00 C330.78,191.00 358.89,199.74 362.16,203.70 C363.17,204.92 363.47,209.30 363.38,221.41 ZM 264.81 325.80 C264.60,327.62 263.84,328.59 262.46,328.79 C259.89,329.16 259.00,328.28 259.00,325.40 C259.00,323.72 258.34,323.05 256.47,322.82 C255.08,322.64 253.95,322.16 253.97,321.75 C253.99,321.34 254.00,318.98 254.00,316.50 C254.00,312.37 254.20,312.00 256.50,312.00 C258.89,312.00 259.00,311.73 259.00,306.00 C259.00,300.27 258.89,300.00 256.50,300.00 C254.39,300.00 254.00,299.53 254.00,297.00 C254.00,294.03 254.06,294.00 259.45,294.00 L 264.90 294.00 L 265.50 305.50 L 271.25 305.80 C276.87,306.09 277.98,306.94 276.23,309.63 C275.83,310.26 274.60,310.94 273.50,311.14 C272.18,311.39 271.39,312.45 271.18,314.27 C270.91,316.65 271.29,317.11 273.98,317.65 C276.44,318.14 277.04,318.72 276.80,320.39 C276.54,322.21 275.73,322.54 270.81,322.80 C265.46,323.08 265.11,323.26 264.81,325.80 ZM 282.00 270.50 C282.00,275.70 281.86,276.00 279.50,276.00 C277.03,276.00 277.00,275.90 277.00,267.50 L 277.00 259.00 L 282.39 259.00 C287.31,259.00 287.84,258.78 288.41,256.50 C289.02,254.08 289.31,254.00 297.52,254.00 C305.90,254.00 306.00,254.03 306.00,256.50 C306.00,258.62 306.46,259.00 309.05,259.00 L 312.10 259.00 L 311.50 270.50 L 306.00 270.50 C300.74,270.50 300.49,270.38 300.18,267.75 C299.92,265.46 299.38,265.00 297.00,265.00 C294.62,265.00 294.08,265.46 293.82,267.75 C293.57,269.93 292.98,270.50 291.00,270.50 C288.89,270.50 288.53,270.07 288.70,267.75 C288.89,265.24 288.60,265.00 285.45,265.00 L 282.00 265.00 ZM 259.00 273.50 C259.00,275.48 258.50,276.00 256.56,276.00 C253.36,276.00 253.09,275.39 253.72,269.75 C254.20,265.57 254.54,265.00 256.63,265.00 C258.60,265.00 259.00,264.49 259.00,262.00 C259.00,259.50 258.60,259.00 256.61,259.00 C254.46,259.00 253.00,257.37 253.00,254.98 C253.00,254.52 254.24,253.99 255.75,253.82 C258.35,253.52 258.52,253.19 258.80,247.75 C259.09,242.12 259.16,242.00 262.05,242.00 C264.95,242.00 265.00,242.09 265.00,247.38 C265.00,253.38 265.73,253.96 273.32,253.99 C276.71,254.00 277.10,254.26 276.82,256.25 C276.54,258.24 275.84,258.53 270.75,258.80 C265.12,259.09 265.00,259.16 265.00,262.05 C265.00,264.66 265.34,265.00 268.00,265.00 C270.97,265.00 271.00,265.06 271.00,270.50 C271.00,275.94 270.97,276.00 268.00,276.00 C265.47,276.00 265.00,275.61 265.00,273.50 C265.00,271.39 264.53,271.00 262.00,271.00 C259.47,271.00 259.00,271.39 259.00,273.50 ZM 299.82 325.75 C299.60,327.62 298.85,328.59 297.46,328.79 C294.88,329.16 294.00,328.28 294.00,325.33 C294.00,323.51 293.45,323.00 291.50,323.00 C289.46,323.00 288.99,322.50 288.93,320.25 C288.89,318.74 288.70,316.29 288.51,314.81 C288.20,312.53 288.56,312.07 290.82,311.81 C292.91,311.57 293.57,310.89 293.82,308.75 C294.08,306.45 294.61,306.00 297.07,306.00 C299.66,306.00 300.00,305.65 300.00,303.00 C300.00,300.33 300.33,300.00 303.00,300.00 L 306.00 300.00 L 306.00 293.93 C306.00,287.91 306.02,287.87 308.75,288.18 C311.38,288.49 311.50,288.74 311.50,294.00 C311.50,299.23 311.37,299.52 308.81,299.81 C306.73,300.05 306.05,300.73 305.81,302.81 C305.57,304.92 304.90,305.57 302.69,305.82 C300.30,306.10 299.93,306.54 300.19,308.82 C300.48,311.29 300.93,311.54 306.00,312.00 C310.84,312.44 311.51,312.77 311.62,314.75 C311.74,316.92 311.44,317.00 302.87,317.00 L 294.00 317.00 L 294.00 320.00 C294.00,322.68 294.33,323.00 297.07,323.00 C299.82,323.00 300.10,323.28 299.82,325.75 ZM 300.08 218.00 L 299.50 235.50 L 283.00 236.08 L 283.00 218.00 ZM 217.79 226.75 L 217.50 235.50 L 209.96 235.79 C205.81,235.95 202.09,235.76 201.71,235.37 C201.32,234.98 201.00,230.92 201.00,226.33 L 201.00 218.00 L 218.08 218.00 ZM 218.00 300.00 L 218.00 317.00 L 201.00 317.00 L 201.00 300.00 ZM 293.81 302.82 C293.52,305.30 293.11,305.52 288.25,305.80 C283.02,306.10 283.00,306.10 283.00,303.10 C283.00,300.15 282.91,300.09 277.25,299.80 C271.84,299.52 271.48,299.34 271.19,296.80 C270.89,294.17 271.03,294.10 276.69,293.80 C280.42,293.61 282.54,293.05 282.62,292.25 C282.69,291.56 282.81,289.23 282.88,287.07 C282.99,283.56 283.30,283.10 285.75,282.82 C287.93,282.57 288.50,281.98 288.51,280.00 C288.52,278.01 289.10,277.43 291.32,277.18 C294.10,276.86 294.11,276.88 293.80,282.18 C293.52,287.18 293.33,287.52 290.70,287.82 C287.96,288.14 287.91,288.26 288.20,293.82 C288.49,299.22 288.64,299.52 291.31,299.82 C293.70,300.10 294.07,300.54 293.81,302.82 ZM 287.51 392.56 C284.09,395.17 282.75,395.53 275.58,395.78 C268.90,396.01 266.29,395.61 260.50,393.46 C250.02,389.57 247.86,389.00 243.76,389.00 C239.92,389.00 238.74,387.70 241.58,386.61 C245.37,385.15 254.18,386.15 262.84,389.00 C272.99,392.35 279.87,392.79 285.47,390.45 C290.93,388.17 291.92,389.20 287.51,392.56 ZM 252.82 325.75 C252.50,328.47 252.42,328.50 244.25,328.79 L 236.00 329.08 L 236.00 323.00 L 253.13 323.00 ZM 236.00 259.00 L 236.00 271.00 L 242.00 271.00 L 242.00 259.00 ZM 256.85 196.90 C252.69,198.35 249.22,198.23 245.25,196.51 C241.46,194.86 240.55,191.35 244.25,192.67 C246.77,193.57 251.88,193.59 256.75,192.73 C259.44,192.24 260.00,192.46 260.00,193.97 C260.00,195.13 258.84,196.21 256.85,196.90 ZM 264.80 229.68 C264.53,234.85 264.25,235.54 262.25,235.82 C259.62,236.19 258.99,234.97 258.71,228.91 C258.50,224.60 258.58,224.49 261.80,224.18 L 265.10 223.87 ZM 312.00 279.50 C312.00,281.89 311.73,282.00 306.00,282.00 C300.27,282.00 300.00,281.89 300.00,279.50 C300.00,277.11 300.27,277.00 306.00,277.00 C311.73,277.00 312.00,277.11 312.00,279.50 ZM 252.80 247.25 C252.54,251.82 252.21,252.54 250.25,252.82 C248.15,253.12 248.00,252.77 248.00,247.57 C248.00,242.26 248.12,242.00 250.55,242.00 C253.00,242.00 253.09,242.21 252.80,247.25 ZM 212.67 270.33 C213.03,270.70 214.38,271.00 215.67,271.00 C217.59,271.00 218.00,270.48 218.00,268.00 C218.00,265.33 217.67,265.00 215.00,265.00 C212.52,265.00 212.00,265.41 212.00,267.33 C212.00,268.62 212.30,269.97 212.67,270.33 ZM 300.00 262.07 C300.00,264.82 300.28,265.10 302.75,264.82 C304.91,264.57 305.57,263.91 305.82,261.75 C306.10,259.28 305.82,259.00 303.07,259.00 C300.31,259.00 300.00,259.31 300.00,262.07 ZM 311.39 327.42 C310.78,329.01 307.90,329.57 306.67,328.33 C306.30,327.97 306.00,326.62 306.00,325.33 C306.00,323.41 306.52,323.00 309.00,323.00 C312.03,323.00 312.65,324.14 311.39,327.42 ZM 299.82 290.75 C299.60,292.62 298.85,293.59 297.46,293.79 C294.88,294.16 294.00,293.28 294.00,290.33 C294.00,288.40 294.52,288.00 297.07,288.00 C299.82,288.00 300.10,288.28 299.82,290.75 ZM 195.00 279.50 C195.00,281.61 194.53,282.00 192.00,282.00 C189.47,282.00 189.00,281.61 189.00,279.50 C189.00,277.39 189.47,277.00 192.00,277.00 C194.53,277.00 195.00,277.39 195.00,279.50 ZM 259.00 314.50 C259.00,316.61 259.47,317.00 262.00,317.00 C264.53,317.00 265.00,316.61 265.00,314.50 C265.00,312.39 264.53,312.00 262.00,312.00 C259.47,312.00 259.00,312.39 259.00,314.50 ZM 282.00 326.00 C282.00,328.53 281.61,329.00 279.50,329.00 C277.39,329.00 277.00,328.53 277.00,326.00 C277.00,323.47 277.39,323.00 279.50,323.00 C281.61,323.00 282.00,323.47 282.00,326.00 ZM 276.82 285.25 C276.59,286.86 275.72,287.59 273.75,287.82 C271.38,288.09 271.00,287.78 271.00,285.57 C271.00,283.37 271.44,283.00 274.07,283.00 C276.68,283.00 277.09,283.34 276.82,285.25 ZM 252.82 308.75 C252.59,310.72 251.86,311.59 250.25,311.82 C248.34,312.09 248.00,311.68 248.00,309.07 C248.00,306.44 248.37,306.00 250.57,306.00 C252.78,306.00 253.09,306.38 252.82,308.75 ZM 264.82 285.25 C264.63,286.62 263.70,287.61 262.46,287.79 C260.00,288.14 259.00,287.29 259.00,284.83 C259.00,283.45 259.76,283.00 262.07,283.00 C264.68,283.00 265.09,283.34 264.82,285.25 ZM 247.00 314.50 C247.00,316.50 246.50,317.00 244.50,317.00 C242.50,317.00 242.00,316.50 242.00,314.50 C242.00,312.50 242.50,312.00 244.50,312.00 C246.50,312.00 247.00,312.50 247.00,314.50 ZM 264.82 215.25 C264.61,216.74 263.69,217.61 262.11,217.84 C260.22,218.10 259.85,217.82 260.36,216.51 C260.71,215.59 261.00,214.42 261.00,213.92 C261.00,213.41 261.93,213.00 263.07,213.00 C264.64,213.00 265.06,213.54 264.82,215.25 Z" fill="rgb(45,43,93)"/>
<path d="M 130.09 367.85 C129.76,368.38 126.12,369.21 122.00,369.68 C115.16,370.47 114.32,370.37 112.50,368.53 C109.92,365.93 107.77,360.43 107.62,356.02 L 107.50 352.54 L 114.50 351.21 C126.45,348.94 160.09,350.09 179.00,353.41 C190.49,355.43 195.46,356.77 198.21,358.56 C200.69,360.18 203.52,361.03 206.71,361.12 C211.62,361.26 217.36,363.90 218.35,366.46 C219.14,368.52 212.24,368.90 208.73,367.00 C206.33,365.70 205.84,365.69 205.06,366.94 C204.31,368.11 203.87,368.14 202.60,367.09 C200.04,364.96 194.08,364.10 188.12,365.00 C185.03,365.47 170.84,366.08 156.60,366.36 C141.49,366.66 130.44,367.28 130.09,367.85 ZM 386.62 368.46 C378.93,370.01 374.12,369.76 372.84,367.73 C372.16,366.64 367.04,366.37 333.29,365.62 C322.18,365.37 312.60,364.87 312.00,364.50 C310.48,363.56 297.00,366.10 297.00,367.33 C297.00,367.88 296.74,368.07 296.42,367.76 C296.11,367.44 294.54,367.56 292.94,368.02 C291.22,368.51 289.79,368.47 289.44,367.91 C289.12,367.39 288.49,367.19 288.04,367.47 C287.59,367.75 286.70,367.35 286.06,366.58 C285.12,365.44 286.03,364.61 290.98,362.09 C294.32,360.39 298.41,359.00 300.06,359.00 C301.71,359.00 305.86,358.05 309.28,356.89 C325.90,351.25 359.42,348.43 380.36,350.90 C390.91,352.15 394.05,352.41 394.75,353.85 C395.05,354.46 394.91,355.28 394.71,356.47 C394.67,356.68 394.63,356.91 394.59,357.15 C393.83,361.91 389.65,367.84 386.62,368.46 ZM 302.87 349.52 C300.46,349.92 295.46,351.77 291.75,353.64 C288.04,355.50 284.94,356.79 284.88,356.51 C284.81,356.23 284.69,355.66 284.61,355.25 C284.53,354.84 284.15,354.00 283.76,353.38 C282.69,351.71 285.48,349.69 296.50,344.20 C315.07,334.95 325.70,331.56 347.50,327.94 C360.82,325.73 381.37,325.23 383.57,327.06 C385.82,328.93 386.11,331.49 384.50,335.34 L 382.97 339.00 L 375.57 339.00 C371.50,339.00 368.02,339.39 367.83,339.86 C367.65,340.33 360.52,340.99 352.00,341.32 C334.12,342.01 317.32,344.34 311.37,346.96 C309.09,347.97 305.27,349.11 302.87,349.52 ZM 211.75 352.46 L 211.75 352.64 C211.75,354.06 211.75,354.76 211.55,354.82 C211.36,354.88 210.97,354.35 210.22,353.31 L 210.12 353.17 C209.39,352.16 208.28,351.31 207.65,351.27 C207.02,351.24 202.00,349.77 196.50,348.00 C183.42,343.81 179.84,342.96 177.87,343.56 C176.97,343.84 174.24,343.61 171.81,343.07 C164.86,341.51 149.85,340.51 133.33,340.51 L 118.15 340.50 L 116.36 335.21 C113.48,326.76 113.98,326.46 130.61,326.69 C148.32,326.94 147.53,326.88 160.50,329.19 C166.55,330.27 174.65,332.45 178.50,334.03 C182.35,335.61 186.72,337.19 188.21,337.55 C189.70,337.91 191.44,338.83 192.08,339.60 C192.72,340.37 194.62,341.00 196.29,341.00 C200.45,341.00 206.82,344.07 207.61,346.45 C208.38,348.76 210.55,351.12 211.26,350.41 C211.53,350.14 211.75,351.06 211.75,352.46 ZM 253.19 226.49 C252.75,229.04 251.90,230.59 250.84,230.79 C248.47,231.25 247.74,229.53 246.91,221.56 C246.51,217.68 245.59,212.56 244.87,210.19 C243.75,206.51 243.77,205.49 245.06,203.19 C246.98,199.76 252.55,199.00 255.90,201.72 C258.00,203.42 258.07,203.83 256.96,208.26 C256.30,210.86 256.00,213.89 256.29,215.00 C256.58,216.10 256.46,217.00 256.02,217.00 C255.19,217.00 254.32,219.91 253.19,226.49 Z" fill="rgb(120,180,76)"/>
<path d="M 253.45 234.75 C253.02,236.14 251.11,236.36 249.36,235.23 C248.44,234.64 242.00,204.11 242.00,200.33 C242.00,199.73 245.58,199.35 251.00,199.38 C255.95,199.41 260.00,199.68 260.01,199.97 C260.02,200.79 253.88,233.34 253.45,234.75 ZM 253.19 226.49 C254.32,219.91 255.19,217.00 256.02,217.00 C256.46,217.00 256.58,216.10 256.29,215.00 C256.00,213.89 256.30,210.86 256.96,208.26 C258.07,203.83 258.00,203.42 255.90,201.72 C252.55,199.00 246.98,199.76 245.06,203.19 C243.77,205.49 243.75,206.51 244.87,210.19 C245.59,212.56 246.51,217.68 246.91,221.56 C247.74,229.53 248.47,231.25 250.84,230.79 C251.90,230.59 252.75,229.04 253.19,226.49 ZM 211.75 352.46 C211.75,351.06 211.53,350.14 211.26,350.41 C210.55,351.12 208.38,348.76 207.61,346.45 C206.82,344.07 200.45,341.00 196.29,341.00 C194.62,341.00 192.72,340.37 192.08,339.60 C191.44,338.83 189.70,337.91 188.21,337.55 C186.72,337.19 182.35,335.61 178.50,334.03 C174.65,332.45 166.55,330.27 160.50,329.19 C147.53,326.88 148.32,326.94 130.61,326.69 C113.98,326.46 113.48,326.76 116.36,335.21 L 117.91 339.78 C116.82,339.66 116.16,339.53 116.03,339.41 C115.28,338.63 112.00,327.39 112.00,325.61 C112.00,325.27 116.28,325.00 121.50,325.00 C127.86,325.00 131.00,324.63 131.00,323.88 C131.00,323.09 131.37,323.07 132.26,323.80 C132.95,324.38 137.34,325.31 142.01,325.87 C153.05,327.20 179.24,332.54 185.00,334.64 C202.60,341.05 227.10,355.45 231.81,362.14 C233.86,365.07 231.75,364.43 219.50,358.45 C216.86,357.16 214.22,355.95 211.55,354.82 L 211.55 354.82 C211.75,354.76 211.75,354.06 211.75,352.64 ZM 386.62 368.46 C389.65,367.84 393.83,361.91 394.59,357.15 C394.63,356.91 394.67,356.68 394.71,356.47 C394.91,355.28 395.05,354.46 394.75,353.85 C394.05,352.41 390.91,352.15 380.36,350.90 C359.42,348.43 325.90,351.25 309.28,356.89 C305.86,358.05 301.71,359.00 300.06,359.00 C298.41,359.00 294.32,360.39 290.98,362.09 C286.03,364.61 285.12,365.44 286.06,366.58 C286.70,367.35 287.59,367.75 288.04,367.47 C288.49,367.19 289.12,367.39 289.44,367.91 C289.79,368.47 291.22,368.51 292.94,368.02 C294.46,367.58 295.96,367.45 296.37,367.72 C293.18,368.17 287.47,369.30 282.50,370.48 L 281.54 370.71 C272.90,372.75 270.92,373.21 270.46,372.58 C270.33,372.40 270.33,372.11 270.33,371.74 C270.33,371.69 270.33,371.64 270.33,371.60 C270.33,367.00 300.51,356.77 325.00,353.06 C332.98,351.85 342.24,350.44 345.58,349.93 C358.70,347.92 392.45,349.51 395.85,352.30 C398.84,354.75 394.09,368.09 389.47,370.19 C387.61,371.04 384.69,370.93 377.26,369.72 C365.73,367.84 355.42,366.58 345.88,365.91 C368.39,366.46 372.26,366.80 372.84,367.73 C374.12,369.76 378.93,370.01 386.62,368.46 ZM 260.34 397.06 C258.05,399.35 248.75,399.09 240.14,396.48 C235.54,395.09 230.95,393.51 229.95,392.97 C228.95,392.44 225.65,392.00 222.62,392.00 C216.72,392.00 214.73,390.75 217.91,389.05 C221.29,387.24 229.49,387.89 237.15,390.57 C248.14,394.42 254.11,395.97 257.95,395.99 C260.38,396.00 261.09,396.31 260.34,397.06 ZM 235.43 373.12 C234.67,374.34 232.86,374.08 222.50,371.32 C216.89,369.82 210.86,368.65 204.24,367.80 C204.51,367.69 204.76,367.40 205.06,366.94 C205.84,365.69 206.33,365.70 208.73,367.00 C212.24,368.90 219.14,368.52 218.35,366.46 C217.36,363.90 211.62,361.26 206.71,361.12 C203.52,361.03 200.69,360.18 198.21,358.56 C196.15,357.21 192.82,356.12 186.41,354.81 C201.80,357.64 203.68,358.20 209.78,360.56 C213.48,361.98 217.85,363.64 219.50,364.23 C225.38,366.34 235.96,372.25 235.43,373.12 ZM 348.09 327.85 C349.85,327.55 351.66,327.26 353.50,326.97 C361.20,325.78 368.02,324.37 368.66,323.85 C369.40,323.25 370.06,323.28 370.47,323.95 C370.84,324.56 374.90,325.00 380.06,325.00 C384.98,325.00 389.00,325.36 389.00,325.79 C389.00,328.13 385.73,338.67 384.70,339.65 C383.90,340.42 375.72,340.97 360.00,341.31 C348.80,341.55 339.30,342.07 331.59,342.86 C337.79,342.14 344.81,341.59 352.00,341.32 C360.52,340.99 367.65,340.33 367.83,339.86 C368.02,339.39 371.50,339.00 375.57,339.00 L 382.97 339.00 L 384.50 335.34 C386.11,331.49 385.82,328.93 383.57,327.06 C381.40,325.26 361.42,325.72 348.09,327.85 ZM 302.87 349.52 C304.59,349.23 307.05,348.55 309.14,347.83 C307.05,348.55 304.59,349.23 302.87,349.52 C300.46,349.92 291.88,353.56 283.80,357.61 C274.28,362.37 268.86,364.58 268.42,363.87 C267.36,362.16 275.03,356.44 285.44,350.34 C283.63,351.67 283.24,352.57 283.76,353.38 C284.15,354.00 284.53,354.84 284.61,355.25 C284.69,355.66 284.81,356.23 284.88,356.51 C284.94,356.79 288.04,355.50 291.75,353.64 C295.46,351.77 300.46,349.92 302.87,349.52 ZM 130.09 367.85 C130.40,367.35 139.14,366.80 151.65,366.48 C144.85,366.91 137.53,367.76 124.50,369.38 L 113.50 370.75 L 110.90 368.33 C107.47,365.14 104.14,355.58 105.64,353.21 C106.72,351.49 114.91,350.48 125.86,350.17 C121.21,350.35 117.27,350.69 114.50,351.21 L 107.50 352.54 L 107.62 356.02 C107.77,360.43 109.92,365.93 112.50,368.53 C114.32,370.37 115.16,370.47 122.00,369.68 C126.12,369.21 129.76,368.38 130.09,367.85 ZM 161.77 341.65 C165.92,342.04 169.36,342.52 171.81,343.07 C174.24,343.61 176.97,343.84 177.87,343.56 C179.84,342.96 183.42,343.81 196.50,348.00 C202.00,349.77 207.02,351.24 207.65,351.27 C208.28,351.31 209.39,352.16 210.12,353.17 L 210.22 353.31 C210.76,354.05 211.11,354.54 211.33,354.73 C201.44,350.55 191.05,347.37 178.50,344.60 C171.91,343.15 167.09,342.24 161.77,341.65 ZM 169.40 366.02 C178.52,365.72 185.98,365.32 188.12,365.00 C194.08,364.10 200.04,364.96 202.60,367.09 C202.95,367.37 203.23,367.58 203.47,367.70 C194.18,366.55 183.71,366.01 171.54,366.02 C170.80,366.02 170.09,366.02 169.40,366.02 ZM 296.97 367.63 C296.99,367.55 297.00,367.45 297.00,367.33 C297.00,366.10 310.48,363.56 312.00,364.50 C312.46,364.78 318.19,365.15 325.85,365.41 C321.72,365.51 317.69,365.74 313.71,366.10 C307.55,366.66 300.40,367.30 297.84,367.54 C297.59,367.56 297.29,367.59 296.97,367.63 ZM 302.21 341.43 C306.05,339.59 309.87,337.90 313.46,336.49 C315.31,335.77 317.33,335.06 319.53,334.37 C313.92,336.22 308.46,338.48 302.21,341.43 ZM 174.29 352.67 C167.58,351.72 159.66,351.01 151.72,350.56 C159.74,350.99 167.64,351.69 174.29,352.67 ZM 133.50 340.51 C138.26,340.51 142.90,340.60 147.26,340.75 C143.92,340.66 140.14,340.59 135.71,340.54 C134.96,340.53 134.22,340.52 133.50,340.51 Z" fill="rgb(133,176,104)"/>
<path d="M 139.35 325.51 C135.78,324.96 132.82,324.26 132.26,323.80 C131.37,323.07 131.00,323.09 131.00,323.88 C131.00,324.63 127.86,325.00 121.50,325.00 C116.28,325.00 112.01,325.27 112.00,325.60 C112.01,325.27 116.05,325.00 121.00,325.00 C125.95,325.00 130.00,324.63 130.00,324.18 C130.00,323.73 127.49,319.57 124.42,314.93 C113.23,298.04 107.11,283.23 102.33,261.50 C100.96,255.30 100.56,248.78 100.54,232.50 C100.51,214.05 100.79,210.23 102.86,201.00 C109.94,169.29 124.05,144.27 147.03,122.65 C168.19,102.75 193.61,89.96 223.80,84.04 C230.06,82.81 236.00,82.68 236.00,83.78 C236.00,84.21 231.98,85.11 227.06,85.77 C205.87,88.66 183.85,97.39 165.37,110.23 C156.40,116.47 137.77,134.14 132.41,141.50 C130.81,143.70 128.96,146.07 128.30,146.77 C126.21,148.99 117.41,165.20 113.65,173.77 C99.35,206.39 97.91,244.16 109.59,280.50 C112.79,290.46 116.89,299.04 123.69,310.00 C131.41,322.44 132.90,324.45 139.35,325.51 ZM 400.48 240.25 C400.10,245.06 399.48,249.00 399.10,249.00 C398.73,249.00 398.42,241.91 398.41,233.25 C398.41,214.01 396.41,201.28 390.77,184.50 C384.96,167.21 379.39,156.84 367.41,140.93 C345.51,111.86 309.31,90.47 274.25,85.87 C263.83,84.50 261.32,82.36 271.25,83.31 C287.42,84.86 311.85,93.34 327.50,102.84 C363.53,124.71 388.22,159.00 397.04,199.43 C399.79,212.04 401.29,229.88 400.48,240.25 ZM 371.02 324.26 C370.73,324.17 370.54,324.06 370.47,323.95 C370.06,323.28 369.40,323.25 368.66,323.85 C368.58,323.92 368.40,324.00 368.14,324.09 L 372.78 317.15 C378.79,308.14 384.74,296.88 387.92,288.50 C389.17,285.20 390.57,281.60 391.02,280.50 C392.09,277.90 395.77,262.65 396.56,257.50 C397.49,251.46 398.11,249.71 399.01,250.65 C399.88,251.56 398.07,262.63 395.43,272.50 C391.36,287.78 384.22,303.66 375.43,317.00 C373.14,320.47 371.25,323.60 371.02,324.26 ZM 280.41 370.98 C273.47,372.64 267.13,374.00 266.33,374.00 C263.72,374.00 265.98,372.09 272.30,368.97 C272.64,368.80 272.99,368.63 273.33,368.47 C271.41,369.66 270.33,370.73 270.33,371.60 C270.33,371.64 270.33,371.69 270.33,371.74 C270.33,372.11 270.33,372.40 270.46,372.58 C270.92,373.21 272.90,372.75 281.54,370.71 L 282.50 370.48 C287.47,369.30 293.18,368.17 296.37,367.72 L 296.37 367.72 C292.98,368.21 286.37,369.56 280.41,370.98 ZM 290.95 361.18 C301.36,357.59 312.47,354.96 325.00,353.06 C313.68,354.77 301.16,357.88 290.95,361.18 ZM 162.97 329.45 C155.72,328.01 148.31,326.70 143.29,326.03 C148.12,326.65 155.60,327.99 162.97,329.45 ZM 319.63 334.33 L 319.53 334.37 C317.50,335.01 315.62,335.66 313.90,336.33 C315.66,335.65 317.57,334.98 319.63,334.33 Z" fill="rgb(165,171,161)"/>
<path d="M 261.50 188.57 C259.59,190.59 258.47,191.92 258.14,192.52 C257.75,192.56 257.30,192.63 256.75,192.73 C254.97,193.04 253.15,193.24 251.44,193.32 C252.30,193.19 252.82,192.94 252.73,192.59 C252.60,192.09 250.77,191.52 248.65,191.33 C246.53,191.14 243.61,190.07 242.15,188.95 C241.72,188.62 241.31,188.31 240.93,188.01 C236.32,184.48 234.98,183.45 235.14,182.82 C235.23,182.50 235.69,182.29 236.31,181.92 C237.49,181.21 237.80,180.44 237.20,179.67 C234.98,176.82 235.18,174.03 237.75,172.16 L 240.30 170.30 L 245.65 175.61 C250.36,180.28 251.00,181.40 251.00,184.96 C251.00,189.40 251.83,189.95 254.35,187.17 C256.55,184.74 256.45,178.46 254.16,175.15 C253.15,173.69 251.96,171.82 251.52,171.00 C250.86,169.78 250.96,169.73 252.05,170.75 C254.09,172.64 254.84,172.28 255.18,169.26 C255.55,166.10 259.00,164.67 259.00,167.68 C259.00,168.68 260.35,171.07 262.00,173.00 C266.38,178.12 266.21,183.58 261.50,188.57 ZM 258.74 187.41 C259.82,188.49 260.87,188.02 262.44,185.78 C265.15,181.92 264.07,176.60 259.84,172.88 C258.83,171.99 258.00,170.73 258.00,170.07 C258.00,169.42 257.55,169.16 257.00,169.50 C255.54,170.40 255.78,173.24 257.62,176.93 C258.62,178.94 259.03,181.44 258.69,183.50 C258.40,185.33 258.42,187.09 258.74,187.41 ZM 243.51 182.72 C246.98,185.29 247.62,185.43 248.61,183.82 C249.54,182.32 241.46,175.00 238.87,175.00 C235.30,175.00 237.06,177.94 243.51,182.72 ZM 243.02 157.97 C241.86,159.60 240.53,162.87 240.06,165.22 C239.30,169.07 239.21,169.18 239.11,166.32 C238.96,162.04 240.21,159.05 243.52,155.75 C246.02,153.26 251.02,151.91 250.98,153.75 C250.95,155.53 249.24,157.19 248.57,156.11 C247.37,154.18 245.20,154.90 243.02,157.97 ZM 260.00 193.89 C259.99,193.01 259.76,192.59 258.98,192.51 L 259.00 192.50 C259.55,192.16 260.00,192.76 260.00,193.84 ZM 245.89 193.08 C245.27,192.97 244.72,192.84 244.25,192.67 C243.32,192.34 242.68,192.31 242.31,192.48 C242.68,192.30 243.32,192.32 244.25,192.65 C244.74,192.82 245.30,192.96 245.89,193.08 ZM 256.85 196.90 C258.13,196.46 259.06,195.85 259.57,195.17 C259.08,195.86 258.17,196.44 256.85,196.90 Z" fill="rgb(235,220,126)"/>
<path d="M 231.66 85.04 C234.26,84.55 236.00,84.06 236.00,83.78 C236.00,82.95 232.61,82.82 228.25,83.34 C229.91,83.13 231.45,83.00 232.41,83.00 C235.43,83.00 235.89,82.59 237.48,78.42 C240.36,70.87 248.14,67.94 256.28,71.35 C260.12,72.95 262.14,75.21 263.50,79.40 C264.44,82.32 264.87,82.54 270.86,83.20 C272.58,83.39 274.36,83.64 276.18,83.95 C274.47,83.68 272.82,83.46 271.25,83.31 C262.72,82.49 263.37,83.96 270.31,85.25 C264.77,84.62 264.09,85.29 263.51,87.96 C263.15,89.59 261.30,92.29 259.39,93.96 C256.42,96.57 255.14,97.00 250.35,97.00 C245.20,97.00 244.46,96.70 240.88,93.12 C238.75,90.98 237.00,88.28 237.00,87.12 C237.00,85.41 235.61,84.75 231.66,85.04 ZM 243.02 157.97 C245.20,154.90 247.37,154.18 248.57,156.11 C248.91,156.66 249.53,156.50 250.05,155.97 C248.63,160.35 248.95,165.19 250.96,168.43 C253.60,172.71 254.76,172.94 255.18,169.26 C254.84,172.28 254.09,172.64 252.05,170.75 C250.96,169.73 250.86,169.78 251.52,171.00 C251.96,171.82 253.15,173.69 254.16,175.15 C256.45,178.46 256.55,184.74 254.35,187.17 C251.83,189.95 251.00,189.40 251.00,184.96 C251.00,181.40 250.36,180.28 245.65,175.61 L 240.30 170.30 L 238.74 171.44 C239.57,170.60 239.72,169.73 239.38,168.38 C239.37,168.35 239.36,168.31 239.35,168.27 C239.49,168.06 239.70,167.08 240.06,165.22 C240.53,162.87 241.86,159.60 243.02,157.97 ZM 258.74 187.41 C258.42,187.09 258.40,185.33 258.69,183.50 C259.03,181.44 258.62,178.94 257.62,176.93 C255.78,173.24 255.54,170.40 257.00,169.50 C257.55,169.16 258.00,169.42 258.00,170.07 C258.00,170.73 258.83,171.99 259.84,172.88 C264.07,176.60 265.15,181.92 262.44,185.78 C260.87,188.02 259.82,188.49 258.74,187.41 ZM 243.51 182.72 C237.06,177.94 235.30,175.00 238.87,175.00 C241.46,175.00 249.54,182.32 248.61,183.82 C247.62,185.43 246.98,185.29 243.51,182.72 ZM 301.63 90.82 C311.03,94.20 320.15,98.38 327.50,102.84 C352.18,117.82 371.13,138.03 383.59,162.22 C371.00,138.05 351.84,117.61 327.50,102.84 C320.21,98.41 311.01,94.21 301.63,90.82 ZM 211.45 88.91 C195.12,93.36 178.95,100.80 165.37,110.23 C179.34,100.53 195.33,93.17 211.45,88.91 ZM 310.03 96.13 C332.41,106.01 353.00,121.81 367.40,140.92 C353.09,121.93 332.43,106.07 310.03,96.13 ZM 400.41 241.01 C400.17,245.68 399.71,249.00 399.10,249.00 C399.46,249.00 400.03,245.47 400.41,241.01 ZM 399.31 213.13 C399.62,215.40 399.88,217.68 400.09,219.99 C400.28,221.98 400.41,224.20 400.49,226.49 C400.27,222.18 399.87,217.60 399.31,213.13 ZM 249.69 152.90 C248.63,152.90 247.08,153.38 245.66,154.17 C247.21,153.24 248.73,152.78 249.69,152.90 ZM 237.04 172.77 C235.73,174.05 235.35,175.67 235.94,177.40 C235.32,175.61 235.70,173.93 237.04,172.77 ZM 239.13 164.55 C239.10,165.12 239.09,165.70 239.11,166.32 C239.12,166.57 239.13,166.80 239.14,167.01 C239.05,166.21 239.05,165.38 239.13,164.55 Z" fill="rgb(243,208,53)"/>
<path d="M 0.00 250.00 L 0.00 0.00 L 250.00 0.00 L 500.00 0.00 L 500.00 250.00 L 500.00 500.00 L 250.00 500.00 L 0.00 500.00 L 0.00 250.00 ZM 260.34 397.06 C261.09,396.31 260.38,396.00 257.95,395.99 C254.11,395.97 248.14,394.42 237.15,390.57 C229.49,387.89 221.29,387.24 217.91,389.05 C214.73,390.75 216.72,392.00 222.62,392.00 C225.65,392.00 228.95,392.44 229.95,392.97 C230.95,393.51 235.54,395.09 240.14,396.48 C248.75,399.09 258.05,399.35 260.34,397.06 ZM 287.51 392.56 C291.92,389.20 290.93,388.17 285.47,390.45 C279.87,392.79 272.99,392.35 262.84,389.00 C254.18,386.15 245.37,385.15 241.58,386.61 C238.74,387.70 239.92,389.00 243.76,389.00 C247.86,389.00 250.02,389.57 260.50,393.46 C266.29,395.61 268.90,396.01 275.58,395.78 C282.75,395.53 284.09,395.17 287.51,392.56 ZM 235.43 373.12 C235.96,372.25 225.38,366.34 219.50,364.23 C217.85,363.64 213.48,361.98 209.78,360.56 C202.76,357.85 201.34,357.52 178.50,353.36 C154.77,349.04 108.32,348.95 105.64,353.21 C104.14,355.58 107.47,365.14 110.90,368.33 L 113.50 370.75 L 124.50 369.38 C148.81,366.35 153.23,366.03 171.54,366.02 C192.77,366.00 208.84,367.67 222.50,371.32 C232.86,374.08 234.67,374.34 235.43,373.12 ZM 280.41 370.98 C287.35,369.32 295.16,367.78 297.77,367.54 C300.37,367.31 307.55,366.66 313.71,366.10 C332.14,364.43 351.68,365.54 377.26,369.72 C384.69,370.93 387.61,371.04 389.47,370.19 C394.09,368.09 398.84,354.75 395.85,352.30 C392.45,349.51 358.70,347.92 345.58,349.93 C342.24,350.44 332.98,351.85 325.00,353.06 C304.72,356.13 288.16,361.13 272.30,368.97 C265.98,372.09 263.72,374.00 266.33,374.00 C267.13,374.00 273.47,372.64 280.41,370.98 ZM 302.87 349.52 C305.27,349.11 309.09,347.97 311.37,346.96 C318.65,343.76 335.10,341.84 360.00,341.31 C375.72,340.97 383.90,340.42 384.70,339.65 C385.73,338.67 389.00,328.13 389.00,325.79 C389.00,325.36 384.95,325.00 380.00,325.00 C375.05,325.00 371.00,324.71 371.00,324.36 C371.00,324.01 372.99,320.70 375.43,317.00 C384.22,303.66 391.36,287.78 395.43,272.50 C398.07,262.63 399.88,251.56 399.01,250.65 C398.11,249.71 397.49,251.46 396.56,257.50 C395.77,262.65 392.09,277.90 391.02,280.50 C390.57,281.60 389.17,285.20 387.92,288.50 C384.74,296.88 378.79,308.14 372.78,317.15 L 367.67 324.79 L 353.58 326.96 C336.47,329.60 322.75,332.86 313.46,336.49 C293.61,344.27 266.49,360.75 268.42,363.87 C268.86,364.58 274.28,362.37 283.80,357.61 C291.88,353.56 300.46,349.92 302.87,349.52 ZM 231.81 362.14 C227.10,355.45 202.60,341.05 185.00,334.64 C179.36,332.58 153.15,327.21 142.50,325.93 C133.20,324.81 132.53,324.24 123.69,310.00 C116.89,299.04 112.79,290.46 109.59,280.50 C97.91,244.16 99.35,206.39 113.65,173.77 C117.41,165.20 126.21,148.99 128.30,146.77 C128.96,146.07 130.81,143.70 132.41,141.50 C137.77,134.14 156.40,116.47 165.37,110.23 C182.54,98.30 203.87,89.55 224.43,86.02 C234.04,84.37 237.00,84.63 237.00,87.12 C237.00,88.28 238.75,90.98 240.88,93.12 C244.46,96.70 245.20,97.00 250.35,97.00 C255.14,97.00 256.42,96.57 259.39,93.96 C261.30,92.29 263.15,89.59 263.51,87.96 C264.26,84.54 265.16,84.40 276.31,86.08 C310.60,91.25 346.07,112.60 367.41,140.93 C379.39,156.84 384.96,167.21 390.77,184.50 C396.41,201.28 398.41,214.01 398.41,233.25 C398.42,241.91 398.73,249.00 399.10,249.00 C400.52,249.00 401.13,231.08 400.09,219.99 C395.40,169.75 369.89,128.58 327.50,102.84 C311.84,93.33 288.12,85.10 270.86,83.20 C264.87,82.54 264.44,82.32 263.50,79.40 C262.14,75.21 260.12,72.95 256.28,71.35 C248.14,67.94 240.36,70.87 237.48,78.42 C235.89,82.59 235.43,83.00 232.41,83.00 C230.59,83.00 226.71,83.47 223.80,84.04 C193.61,89.96 168.19,102.75 147.03,122.65 C124.05,144.27 109.94,169.29 102.86,201.00 C100.79,210.23 100.51,214.05 100.54,232.50 C100.56,248.78 100.96,255.30 102.33,261.50 C107.11,283.23 113.23,298.04 124.42,314.93 C127.49,319.57 130.00,323.73 130.00,324.18 C130.00,324.63 125.95,325.00 121.00,325.00 C116.05,325.00 112.00,325.27 112.00,325.61 C112.00,327.39 115.28,338.63 116.03,339.41 C116.52,339.90 125.37,340.41 135.71,340.54 C157.88,340.81 163.82,341.37 178.50,344.60 C194.53,348.13 207.04,352.36 219.50,358.45 C231.75,364.43 233.86,365.07 231.81,362.14 ZM 229.77 308.50 L 230.04 288.50 L 209.52 288.43 L 189.00 288.37 L 189.00 308.02 C189.00,318.82 189.31,327.98 189.69,328.35 C190.07,328.73 199.18,328.92 209.94,328.77 L 229.50 328.50 L 229.77 308.50 ZM 252.82 325.75 L 253.13 323.00 L 244.57 323.00 L 236.00 323.00 L 236.00 326.04 L 236.00 329.08 L 244.25 328.79 C252.42,328.50 252.50,328.47 252.82,325.75 ZM 264.81 325.80 C265.11,323.26 265.46,323.08 270.81,322.80 C275.73,322.54 276.54,322.21 276.80,320.39 C277.04,318.72 276.44,318.14 273.98,317.65 C271.29,317.11 270.91,316.65 271.18,314.27 C271.39,312.45 272.18,311.39 273.50,311.14 C274.60,310.94 275.83,310.26 276.23,309.63 C277.98,306.94 276.87,306.09 271.25,305.80 L 265.50 305.50 L 265.20 299.75 L 264.90 294.00 L 259.45 294.00 C254.06,294.00 254.00,294.03 254.00,297.00 C254.00,299.53 254.39,300.00 256.50,300.00 C258.89,300.00 259.00,300.27 259.00,306.00 C259.00,311.73 258.89,312.00 256.50,312.00 C254.20,312.00 254.00,312.37 254.00,316.50 C254.00,318.98 253.99,321.34 253.97,321.75 C253.95,322.16 255.08,322.64 256.47,322.82 C258.34,323.05 259.00,323.72 259.00,325.40 C259.00,328.28 259.89,329.16 262.46,328.79 C263.84,328.59 264.60,327.62 264.81,325.80 ZM 282.00 326.00 C282.00,323.47 281.61,323.00 279.50,323.00 C277.39,323.00 277.00,323.47 277.00,326.00 C277.00,328.53 277.39,329.00 279.50,329.00 C281.61,329.00 282.00,328.53 282.00,326.00 ZM 299.82 325.75 C300.10,323.28 299.82,323.00 297.07,323.00 C294.33,323.00 294.00,322.68 294.00,320.00 L 294.00 317.00 L 302.87 317.00 C311.44,317.00 311.74,316.92 311.62,314.75 C311.51,312.77 310.84,312.44 306.00,312.00 C300.93,311.54 300.48,311.29 300.19,308.82 C299.93,306.54 300.30,306.10 302.69,305.82 C304.90,305.57 305.57,304.92 305.81,302.81 C306.05,300.73 306.73,300.05 308.81,299.81 C311.37,299.52 311.50,299.23 311.50,294.00 C311.50,288.74 311.38,288.49 308.75,288.18 C306.02,287.87 306.00,287.91 306.00,293.93 L 306.00 300.00 L 303.00 300.00 C300.33,300.00 300.00,300.33 300.00,303.00 C300.00,305.65 299.66,306.00 297.07,306.00 C294.61,306.00 294.08,306.45 293.82,308.75 C293.57,310.89 292.91,311.57 290.82,311.81 C288.56,312.07 288.20,312.53 288.51,314.81 C288.70,316.29 288.89,318.74 288.93,320.25 C288.99,322.50 289.46,323.00 291.50,323.00 C293.45,323.00 294.00,323.51 294.00,325.33 C294.00,328.28 294.88,329.16 297.46,328.79 C298.85,328.59 299.60,327.62 299.82,325.75 ZM 311.39 327.42 C312.65,324.14 312.03,323.00 309.00,323.00 C306.52,323.00 306.00,323.41 306.00,325.33 C306.00,326.62 306.30,327.97 306.67,328.33 C307.90,329.57 310.78,329.01 311.39,327.42 ZM 247.00 314.50 C247.00,312.50 246.50,312.00 244.50,312.00 C242.50,312.00 242.00,312.50 242.00,314.50 C242.00,316.50 242.50,317.00 244.50,317.00 C246.50,317.00 247.00,316.50 247.00,314.50 ZM 252.82 308.75 C253.09,306.38 252.78,306.00 250.57,306.00 C248.37,306.00 248.00,306.44 248.00,309.07 C248.00,311.68 248.34,312.09 250.25,311.82 C251.86,311.59 252.59,310.72 252.82,308.75 ZM 293.81 302.82 C294.07,300.54 293.70,300.10 291.31,299.82 C288.64,299.52 288.49,299.22 288.20,293.82 C287.91,288.26 287.96,288.14 290.70,287.82 C293.33,287.52 293.52,287.18 293.80,282.18 C294.11,276.88 294.10,276.86 291.32,277.18 C289.10,277.43 288.52,278.01 288.51,280.00 C288.50,281.98 287.93,282.57 285.75,282.82 C283.30,283.10 282.99,283.56 282.88,287.07 C282.81,289.23 282.69,291.56 282.62,292.25 C282.54,293.05 280.42,293.61 276.69,293.80 C271.03,294.10 270.89,294.17 271.19,296.80 C271.48,299.34 271.84,299.52 277.25,299.80 C282.91,300.09 283.00,300.15 283.00,303.10 C283.00,306.10 283.02,306.10 288.25,305.80 C293.11,305.52 293.52,305.30 293.81,302.82 ZM 246.81 296.81 C247.05,294.73 247.73,294.05 249.81,293.81 C251.91,293.57 252.57,292.89 252.82,290.75 C253.10,288.28 252.82,288.00 250.07,288.00 C247.33,288.00 247.00,287.68 247.00,285.00 C247.00,282.33 247.33,282.00 250.00,282.00 C252.53,282.00 253.00,281.61 253.00,279.50 C253.00,277.14 252.70,277.00 247.50,277.00 C242.08,277.00 242.00,276.95 242.00,274.07 C242.00,271.79 242.50,271.07 244.25,270.82 C246.35,270.52 246.52,269.94 246.79,262.25 C247.06,254.68 246.92,254.00 245.16,254.00 C242.14,254.00 241.14,251.89 241.72,246.75 C242.14,243.03 242.65,242.00 244.07,242.00 C246.75,242.00 247.38,240.23 246.17,236.14 C242.31,223.09 241.68,220.64 241.77,219.16 C242.03,215.02 240.95,213.00 238.48,213.00 C236.03,213.00 236.00,213.12 236.00,221.50 L 236.00 230.00 L 239.00 230.00 L 242.00 230.00 L 242.00 236.00 C242.00,241.98 241.99,242.00 239.05,242.00 C236.16,242.00 236.09,242.12 235.80,247.75 L 235.50 253.50 L 229.69 253.80 C224.35,254.08 223.90,254.28 224.19,256.30 C224.41,257.87 225.30,258.59 227.31,258.82 C229.70,259.10 230.07,259.54 229.81,261.82 C229.52,264.34 229.15,264.52 223.75,264.80 L 218.00 265.10 L 218.00 262.05 C218.00,259.02 217.96,259.00 212.57,259.00 C207.38,259.00 207.12,259.13 206.82,261.75 C206.57,263.91 205.91,264.57 203.75,264.82 C201.28,265.10 201.00,264.82 201.00,262.07 C201.00,259.33 200.68,259.00 198.00,259.00 C195.47,259.00 195.00,258.61 195.00,256.50 C195.00,254.38 194.54,254.00 191.95,254.00 L 188.90 254.00 L 189.20 259.25 L 189.50 264.50 L 195.31 264.80 C200.97,265.10 201.11,265.17 200.81,267.80 C200.57,269.91 199.90,270.57 197.75,270.82 C195.59,271.06 195.00,271.65 195.00,273.57 C195.00,275.60 195.49,276.00 198.00,276.00 C200.67,276.00 201.00,276.33 201.00,279.00 C201.00,281.53 201.39,282.00 203.50,282.00 C205.47,282.00 206.00,281.49 206.00,279.61 C206.00,276.77 207.62,276.00 213.58,276.00 C217.63,276.00 218.00,275.79 218.00,273.50 C218.00,271.11 218.27,271.00 224.00,271.00 L 230.00 271.00 L 230.00 274.00 C230.00,276.67 229.67,277.00 227.00,277.00 C224.47,277.00 224.00,277.39 224.00,279.50 C224.00,281.60 224.47,282.00 226.93,282.00 C229.39,282.00 229.92,281.55 230.18,279.25 C230.49,276.62 230.74,276.50 236.00,276.50 C241.44,276.50 241.50,276.53 241.50,279.50 C241.50,282.03 241.07,282.55 238.75,282.82 C236.13,283.12 236.00,283.38 236.00,288.57 C236.00,293.94 236.03,294.00 239.00,294.00 C241.68,294.00 242.00,294.33 242.00,297.07 C242.00,299.68 242.34,300.09 244.25,299.82 C245.85,299.59 246.59,298.72 246.81,296.81 ZM 299.82 290.75 C300.10,288.28 299.82,288.00 297.07,288.00 C294.52,288.00 294.00,288.40 294.00,290.33 C294.00,293.28 294.88,294.16 297.46,293.79 C298.85,293.59 299.60,292.62 299.82,290.75 ZM 264.82 285.25 C265.09,283.34 264.68,283.00 262.07,283.00 C259.76,283.00 259.00,283.45 259.00,284.83 C259.00,287.29 260.00,288.14 262.46,287.79 C263.70,287.61 264.63,286.62 264.82,285.25 ZM 276.82 285.25 C277.09,283.34 276.68,283.00 274.07,283.00 C271.44,283.00 271.00,283.37 271.00,285.57 C271.00,287.78 271.38,288.09 273.75,287.82 C275.72,287.59 276.59,286.86 276.82,285.25 ZM 195.00 279.50 C195.00,277.39 194.53,277.00 192.00,277.00 C189.47,277.00 189.00,277.39 189.00,279.50 C189.00,281.61 189.47,282.00 192.00,282.00 C194.53,282.00 195.00,281.61 195.00,279.50 ZM 312.00 279.50 C312.00,277.11 311.73,277.00 306.00,277.00 C300.27,277.00 300.00,277.11 300.00,279.50 C300.00,281.89 300.27,282.00 306.00,282.00 C311.73,282.00 312.00,281.89 312.00,279.50 ZM 259.00 273.50 C259.00,271.39 259.47,271.00 262.00,271.00 C264.53,271.00 265.00,271.39 265.00,273.50 C265.00,275.61 265.47,276.00 268.00,276.00 C270.97,276.00 271.00,275.94 271.00,270.50 C271.00,265.06 270.97,265.00 268.00,265.00 C265.34,265.00 265.00,264.66 265.00,262.05 C265.00,259.16 265.12,259.09 270.75,258.80 C275.84,258.53 276.54,258.24 276.82,256.25 C277.10,254.26 276.71,254.00 273.32,253.99 C265.73,253.96 265.00,253.38 265.00,247.38 C265.00,242.09 264.95,242.00 262.05,242.00 C259.16,242.00 259.09,242.12 258.80,247.75 C258.52,253.19 258.35,253.52 255.75,253.82 C254.24,253.99 253.00,254.52 253.00,254.98 C253.00,257.37 254.46,259.00 256.61,259.00 C258.60,259.00 259.00,259.50 259.00,262.00 C259.00,264.49 258.60,265.00 256.63,265.00 C254.54,265.00 254.20,265.57 253.72,269.75 C253.09,275.39 253.36,276.00 256.56,276.00 C258.50,276.00 259.00,275.48 259.00,273.50 ZM 282.00 270.50 L 282.00 265.00 L 285.45 265.00 C288.60,265.00 288.89,265.24 288.70,267.75 C288.53,270.07 288.89,270.50 291.00,270.50 C292.98,270.50 293.57,269.93 293.82,267.75 C294.08,265.46 294.62,265.00 297.00,265.00 C299.38,265.00 299.92,265.46 300.18,267.75 C300.49,270.38 300.74,270.50 306.00,270.50 L 311.50 270.50 L 311.80 264.75 L 312.10 259.00 L 309.05 259.00 C306.46,259.00 306.00,258.62 306.00,256.50 C306.00,254.03 305.90,254.00 297.52,254.00 C289.31,254.00 289.02,254.08 288.41,256.50 C287.84,258.78 287.31,259.00 282.39,259.00 L 277.00 259.00 L 277.00 267.50 C277.00,275.90 277.03,276.00 279.50,276.00 C281.86,276.00 282.00,275.70 282.00,270.50 ZM 252.80 247.25 C253.09,242.21 253.00,242.00 250.55,242.00 C248.12,242.00 248.00,242.26 248.00,247.57 C248.00,252.77 248.15,253.12 250.25,252.82 C252.21,252.54 252.54,251.82 252.80,247.25 ZM 229.77 226.75 L 230.04 207.00 L 209.52 207.00 L 189.00 207.00 L 189.00 227.02 L 189.00 247.04 L 209.25 246.77 L 229.50 246.50 L 229.77 226.75 ZM 311.77 226.75 L 312.04 207.00 L 291.52 207.00 L 271.00 207.00 L 271.00 227.02 L 271.00 247.04 L 291.25 246.77 L 311.50 246.50 L 311.77 226.75 ZM 363.38 221.41 C363.47,209.30 363.17,204.92 362.16,203.70 C358.89,199.74 330.78,191.00 321.33,191.00 C317.18,191.00 317.75,192.58 322.26,193.53 C324.04,193.91 328.71,195.69 332.63,197.49 C347.07,204.11 357.24,218.12 360.12,235.36 C361.29,242.39 361.53,242.92 362.34,240.36 C362.85,238.79 363.31,230.26 363.38,221.41 ZM 141.00 233.75 C144.30,217.63 154.05,204.94 168.52,197.93 C172.99,195.77 177.31,194.00 178.13,194.00 C178.95,194.00 180.49,193.34 181.56,192.53 C183.42,191.12 183.40,191.06 180.86,191.03 C172.82,190.93 153.27,196.30 143.39,201.30 C139.26,203.40 138.15,204.51 137.64,207.07 C136.26,213.97 137.34,240.00 139.01,240.00 C139.40,240.00 140.30,237.19 141.00,233.75 ZM 253.45 234.75 C253.88,233.34 260.02,200.79 260.01,199.97 C260.00,199.68 255.95,199.41 251.00,199.38 C245.58,199.35 242.00,199.73 242.00,200.33 C242.00,204.11 248.44,234.64 249.36,235.23 C251.11,236.36 253.02,236.14 253.45,234.75 ZM 264.80 229.68 L 265.10 223.87 L 261.80 224.18 C258.58,224.49 258.50,224.60 258.71,228.91 C258.99,234.97 259.62,236.19 262.25,235.82 C264.25,235.54 264.53,234.85 264.80,229.68 ZM 264.82 215.25 C265.06,213.54 264.64,213.00 263.07,213.00 C261.93,213.00 261.00,213.41 261.00,213.92 C261.00,214.42 260.71,215.59 260.36,216.51 C259.85,217.82 260.22,218.10 262.11,217.84 C263.69,217.61 264.61,216.74 264.82,215.25 ZM 166.50 189.17 C172.00,188.05 178.39,186.84 180.71,186.49 L 184.91 185.84 L 187.17 178.67 C188.42,174.73 192.37,165.66 195.96,158.50 C199.55,151.35 202.62,145.22 202.78,144.88 C203.54,143.31 180.70,148.49 166.27,153.16 L 157.05 156.15 L 152.52 163.41 C150.04,167.40 148.00,170.95 148.00,171.30 C148.00,171.65 146.81,174.54 145.35,177.72 C142.43,184.07 141.06,188.56 140.30,194.21 L 139.80 197.93 L 148.15 194.56 C152.74,192.71 161.00,190.29 166.50,189.17 ZM 256.85 196.90 C258.94,196.17 260.00,195.14 260.00,193.84 C260.00,192.76 259.55,192.16 259.00,192.50 C257.12,193.66 258.00,192.28 261.50,188.57 C266.21,183.58 266.38,178.12 262.00,173.00 C260.35,171.07 259.00,168.68 259.00,167.68 C259.00,164.67 255.55,166.10 255.18,169.26 C254.76,172.94 253.60,172.71 250.96,168.43 C248.76,164.88 248.58,159.43 250.50,154.75 C251.78,151.62 246.60,152.63 243.13,156.18 C239.86,159.52 238.37,164.37 239.38,168.38 C239.84,170.21 239.41,171.16 237.58,172.36 C235.15,173.95 235.00,176.85 237.20,179.67 C237.80,180.44 237.49,181.21 236.31,181.92 C234.34,183.10 233.99,182.68 242.15,188.95 C243.61,190.07 246.53,191.14 248.65,191.33 C250.77,191.52 252.60,192.09 252.73,192.59 C253.01,193.69 247.37,193.73 244.25,192.65 C240.55,191.36 241.46,194.86 245.25,196.51 C249.22,198.23 252.69,198.35 256.85,196.90 ZM 361.00 194.87 C361.00,188.40 348.91,160.86 344.31,156.84 C342.76,155.49 337.23,153.51 322.50,149.03 C320.85,148.53 316.58,147.60 313.00,146.97 C309.42,146.34 304.77,145.38 302.65,144.84 C300.54,144.30 298.64,144.02 298.44,144.22 C298.24,144.42 301.14,150.68 304.88,158.12 C308.62,165.56 312.52,174.45 313.54,177.87 C314.57,181.29 315.88,184.44 316.45,184.87 C317.03,185.29 323.63,186.83 331.12,188.28 C338.62,189.74 348.07,192.27 352.12,193.91 C361.06,197.53 361.00,197.52 361.00,194.87 ZM 216.96 183.94 C224.92,183.37 231.57,182.76 231.75,182.58 C231.93,182.40 232.44,179.96 232.88,177.17 C233.33,174.37 234.28,171.37 235.00,170.50 C235.72,169.63 236.49,167.06 236.72,164.78 C237.63,155.74 243.58,150.29 253.64,149.30 L 259.50 148.72 L 257.43 151.11 C253.97,155.12 252.00,158.81 252.00,161.30 C252.00,164.59 252.91,165.17 255.35,163.46 C256.50,162.66 258.53,162.00 259.85,162.00 C261.95,162.00 262.18,162.35 261.68,164.84 C261.25,167.02 261.79,168.50 264.00,171.19 C265.59,173.12 267.47,176.52 268.16,178.75 C269.43,182.81 269.44,182.81 275.46,183.39 C290.39,184.81 306.75,185.22 307.38,184.20 C308.52,182.35 300.37,162.88 293.24,150.40 L 289.75 144.31 L 274.13 143.01 C259.27,141.78 240.28,141.99 219.32,143.61 L 211.14 144.25 L 204.69 156.87 C198.45,169.10 193.00,181.70 193.00,183.92 C193.00,185.27 198.39,185.27 216.96,183.94 ZM 167.68 147.93 C172.37,146.14 188.98,142.27 197.72,140.92 L 205.93 139.65 L 212.34 131.07 C218.51,122.81 223.60,117.55 231.02,111.80 C234.06,109.43 234.23,109.09 232.36,109.05 C227.39,108.94 209.76,114.47 200.27,119.12 C187.99,125.14 179.96,130.81 170.25,140.34 C161.45,148.97 160.93,150.50 167.68,147.93 ZM 336.32 145.65 C327.62,135.34 311.84,123.59 298.64,117.59 C290.41,113.84 274.27,109.00 270.02,109.00 C267.62,109.00 267.64,109.08 271.02,111.89 C272.93,113.48 275.41,115.62 276.53,116.64 C279.77,119.61 288.42,130.08 291.90,135.25 C294.42,139.00 295.68,140.00 297.86,140.00 C302.12,140.00 324.85,144.68 331.00,146.83 C337.34,149.04 338.89,148.70 336.32,145.65 ZM 244.20 136.40 C256.75,135.96 266.07,136.14 272.56,136.96 C287.32,138.81 287.46,137.00 273.72,122.45 C268.18,116.58 263.98,113.19 259.08,110.61 C255.30,108.62 251.60,107.01 250.85,107.02 C250.11,107.03 245.90,109.13 241.50,111.69 C233.22,116.51 220.18,128.70 216.63,134.93 L 214.76 138.21 L 220.13 137.63 C223.08,137.32 233.91,136.76 244.20,136.40 ZM 195.00 308.50 L 195.00 294.00 L 209.50 294.00 L 224.00 294.00 L 224.00 308.50 L 224.00 323.00 L 209.50 323.00 L 195.00 323.00 L 195.00 308.50 ZM 218.00 308.50 L 218.00 300.00 L 209.50 300.00 L 201.00 300.00 L 201.00 308.50 L 201.00 317.00 L 209.50 317.00 L 218.00 317.00 L 218.00 308.50 ZM 259.00 314.50 C259.00,312.39 259.47,312.00 262.00,312.00 C264.53,312.00 265.00,312.39 265.00,314.50 C265.00,316.61 264.53,317.00 262.00,317.00 C259.47,317.00 259.00,316.61 259.00,314.50 ZM 212.67 270.33 C212.30,269.97 212.00,268.62 212.00,267.33 C212.00,265.41 212.52,265.00 215.00,265.00 C217.67,265.00 218.00,265.33 218.00,268.00 C218.00,270.48 217.59,271.00 215.67,271.00 C214.38,271.00 213.03,270.70 212.67,270.33 ZM 236.00 265.00 L 236.00 259.00 L 239.00 259.00 L 242.00 259.00 L 242.00 265.00 L 242.00 271.00 L 239.00 271.00 L 236.00 271.00 L 236.00 265.00 ZM 300.00 262.07 C300.00,259.31 300.31,259.00 303.07,259.00 C305.82,259.00 306.10,259.28 305.82,261.75 C305.57,263.91 304.91,264.57 302.75,264.82 C300.28,265.10 300.00,264.82 300.00,262.07 ZM 195.44 240.70 C195.16,239.98 195.07,233.35 195.22,225.95 L 195.50 212.50 L 207.00 212.41 C213.32,212.36 219.74,212.50 221.25,212.74 L 224.00 213.16 L 224.00 227.58 L 224.00 242.00 L 209.97 242.00 C199.38,242.00 195.81,241.68 195.44,240.70 ZM 217.79 226.75 L 218.08 218.00 L 209.54 218.00 L 201.00 218.00 L 201.00 226.33 C201.00,230.92 201.32,234.98 201.71,235.37 C202.09,235.76 205.81,235.95 209.96,235.79 L 217.50 235.50 L 217.79 226.75 ZM 277.00 227.53 L 277.00 213.00 L 291.53 213.00 L 306.05 213.00 L 305.78 227.25 L 305.50 241.50 L 291.25 241.78 L 277.00 242.05 L 277.00 227.53 ZM 299.79 226.75 L 300.08 218.00 L 291.54 218.00 L 283.00 218.00 L 283.00 227.04 L 283.00 236.08 L 291.25 235.79 L 299.50 235.50 L 299.79 226.75 Z" fill="rgb(254,254,254)"/>
</g>
</svg>